<mxfile host="Electron" agent="Mozilla/5.0 (Windows NT 10.0; Win64; x64) AppleWebKit/537.36 (KHTML, like Gecko) draw.io/28.0.6 Chrome/138.0.7204.100 Electron/37.2.3 Safari/537.36" version="28.0.6">
  <diagram name="第 1 页" id="qSZFYG2kSmfp3DkHucBM">
    <mxGraphModel dx="1554" dy="914" grid="1" gridSize="10" guides="1" tooltips="1" connect="1" arrows="1" fold="1" page="1" pageScale="1" pageWidth="827" pageHeight="1169" math="0" shadow="0">
      <root>
        <mxCell id="0" />
        <mxCell id="1" parent="0" />
        <mxCell id="J3TVIsSFj8DeQbO7fkDb-45" value="" style="group;labelBackgroundColor=none;rounded=0;fontFamily=Go;" parent="1" vertex="1" connectable="0">
          <mxGeometry x="130" y="350" width="400" height="40" as="geometry" />
        </mxCell>
        <mxCell id="J3TVIsSFj8DeQbO7fkDb-3" value="&lt;font style=&quot;font-size: 16px;&quot;&gt;Service&lt;/font&gt;" style="rounded=0;whiteSpace=wrap;html=1;fontFamily=Go;labelBackgroundColor=none;" parent="J3TVIsSFj8DeQbO7fkDb-45" vertex="1">
          <mxGeometry x="140" width="260" height="40" as="geometry" />
        </mxCell>
        <mxCell id="J3TVIsSFj8DeQbO7fkDb-25" value="&lt;font&gt;&lt;span style=&quot;font-size: 16px;&quot;&gt;Application&lt;/span&gt;&lt;/font&gt;&lt;div&gt;&lt;font&gt;&lt;span style=&quot;font-size: 16px;&quot;&gt;Layer&lt;/span&gt;&lt;/font&gt;&lt;/div&gt;" style="text;html=1;align=left;verticalAlign=middle;whiteSpace=wrap;rounded=0;fontFamily=Go;labelBackgroundColor=none;" parent="J3TVIsSFj8DeQbO7fkDb-45" vertex="1">
          <mxGeometry width="110" height="40" as="geometry" />
        </mxCell>
        <mxCell id="J3TVIsSFj8DeQbO7fkDb-46" value="" style="group;labelBackgroundColor=none;rounded=0;fontFamily=Go;" parent="1" vertex="1" connectable="0">
          <mxGeometry x="130" y="510" width="400" height="40" as="geometry" />
        </mxCell>
        <mxCell id="J3TVIsSFj8DeQbO7fkDb-6" value="&lt;font style=&quot;font-size: 16px;&quot;&gt;Biz&lt;/font&gt;" style="rounded=0;whiteSpace=wrap;html=1;fontFamily=Go;labelBackgroundColor=none;" parent="J3TVIsSFj8DeQbO7fkDb-46" vertex="1">
          <mxGeometry x="140" width="260" height="40" as="geometry" />
        </mxCell>
        <mxCell id="J3TVIsSFj8DeQbO7fkDb-26" value="&lt;font&gt;&lt;span style=&quot;font-size: 16px;&quot;&gt;Domain&lt;/span&gt;&lt;/font&gt;&lt;div&gt;&lt;font&gt;&lt;span style=&quot;font-size: 16px;&quot;&gt;Layer&lt;/span&gt;&lt;/font&gt;&lt;/div&gt;" style="text;html=1;align=left;verticalAlign=middle;whiteSpace=wrap;rounded=0;fontFamily=Go;labelBackgroundColor=none;" parent="J3TVIsSFj8DeQbO7fkDb-46" vertex="1">
          <mxGeometry width="110" height="40" as="geometry" />
        </mxCell>
        <mxCell id="J3TVIsSFj8DeQbO7fkDb-19" value="" style="rounded=0;whiteSpace=wrap;html=1;fillColor=none;dashed=1;dashPattern=8 8;fontFamily=Go;labelBackgroundColor=none;container=0;" parent="1" vertex="1">
          <mxGeometry x="270" y="250" width="260" height="60" as="geometry" />
        </mxCell>
        <mxCell id="J3TVIsSFj8DeQbO7fkDb-1" value="&lt;font style=&quot;font-size: 16px;&quot;&gt;API&lt;/font&gt;" style="rounded=0;whiteSpace=wrap;html=1;fontFamily=Go;labelBackgroundColor=none;" parent="1" vertex="1">
          <mxGeometry x="280" y="260" width="110" height="40" as="geometry" />
        </mxCell>
        <mxCell id="J3TVIsSFj8DeQbO7fkDb-22" value="&lt;font&gt;&lt;span style=&quot;font-size: 16px;&quot;&gt;User Interface&lt;/span&gt;&lt;/font&gt;&lt;div&gt;&lt;font&gt;&lt;span style=&quot;font-size: 16px;&quot;&gt;Layer&lt;/span&gt;&lt;/font&gt;&lt;/div&gt;" style="text;html=1;align=left;verticalAlign=middle;whiteSpace=wrap;rounded=0;fontFamily=Go;labelBackgroundColor=none;" parent="1" vertex="1">
          <mxGeometry x="130" y="260" width="110" height="40" as="geometry" />
        </mxCell>
        <mxCell id="J3TVIsSFj8DeQbO7fkDb-55" style="edgeStyle=orthogonalEdgeStyle;orthogonalLoop=1;jettySize=auto;html=1;exitX=0.5;exitY=1;exitDx=0;exitDy=0;entryX=0.75;entryY=0;entryDx=0;entryDy=0;fontFamily=Go;" parent="1" source="J3TVIsSFj8DeQbO7fkDb-2" target="J3TVIsSFj8DeQbO7fkDb-3" edge="1">
          <mxGeometry relative="1" as="geometry" />
        </mxCell>
        <mxCell id="J3TVIsSFj8DeQbO7fkDb-2" value="&lt;font style=&quot;font-size: 16px;&quot;&gt;Server&lt;/font&gt;" style="rounded=0;whiteSpace=wrap;html=1;fontFamily=Go;labelBackgroundColor=none;" parent="1" vertex="1">
          <mxGeometry x="410" y="260" width="110" height="40" as="geometry" />
        </mxCell>
        <mxCell id="J3TVIsSFj8DeQbO7fkDb-58" style="edgeStyle=orthogonalEdgeStyle;orthogonalLoop=1;jettySize=auto;html=1;exitX=0.5;exitY=1;exitDx=0;exitDy=0;entryX=0.5;entryY=0;entryDx=0;entryDy=0;fontFamily=Go;" parent="1" source="J3TVIsSFj8DeQbO7fkDb-9" target="J3TVIsSFj8DeQbO7fkDb-6" edge="1">
          <mxGeometry relative="1" as="geometry" />
        </mxCell>
        <mxCell id="J3TVIsSFj8DeQbO7fkDb-9" value="&lt;font style=&quot;font-size: 16px;&quot;&gt;Data&lt;/font&gt;" style="rounded=0;whiteSpace=wrap;html=1;fontFamily=Go;labelBackgroundColor=none;" parent="1" vertex="1">
          <mxGeometry x="270" y="430" width="260" height="40" as="geometry" />
        </mxCell>
        <mxCell id="J3TVIsSFj8DeQbO7fkDb-21" value="&lt;font style=&quot;font-size: 16px;&quot;&gt;Infrastructure&lt;/font&gt;&lt;div&gt;&lt;font style=&quot;font-size: 16px;&quot;&gt;Layer&lt;/font&gt;&lt;/div&gt;" style="text;html=1;align=left;verticalAlign=middle;whiteSpace=wrap;rounded=0;fontFamily=Go;labelBackgroundColor=none;" parent="1" vertex="1">
          <mxGeometry x="130" y="430" width="110" height="40" as="geometry" />
        </mxCell>
        <mxCell id="J3TVIsSFj8DeQbO7fkDb-56" style="edgeStyle=orthogonalEdgeStyle;orthogonalLoop=1;jettySize=auto;html=1;exitX=1;exitY=0.5;exitDx=0;exitDy=0;entryX=1;entryY=0.5;entryDx=0;entryDy=0;rounded=0;curved=0;fontFamily=Go;" parent="1" source="J3TVIsSFj8DeQbO7fkDb-3" target="J3TVIsSFj8DeQbO7fkDb-6" edge="1">
          <mxGeometry relative="1" as="geometry" />
        </mxCell>
        <mxCell id="J3TVIsSFj8DeQbO7fkDb-57" style="edgeStyle=orthogonalEdgeStyle;orthogonalLoop=1;jettySize=auto;html=1;exitX=0.5;exitY=1;exitDx=0;exitDy=0;entryX=0.5;entryY=0;entryDx=0;entryDy=0;fontFamily=Go;" parent="1" source="J3TVIsSFj8DeQbO7fkDb-3" target="J3TVIsSFj8DeQbO7fkDb-9" edge="1">
          <mxGeometry relative="1" as="geometry" />
        </mxCell>
        <mxCell id="J3TVIsSFj8DeQbO7fkDb-59" style="edgeStyle=orthogonalEdgeStyle;orthogonalLoop=1;jettySize=auto;html=1;exitX=0.25;exitY=0;exitDx=0;exitDy=0;entryX=0.5;entryY=1;entryDx=0;entryDy=0;dashed=1;fontFamily=Go;" parent="1" source="J3TVIsSFj8DeQbO7fkDb-3" target="J3TVIsSFj8DeQbO7fkDb-1" edge="1">
          <mxGeometry relative="1" as="geometry" />
        </mxCell>
        <mxCell id="J3TVIsSFj8DeQbO7fkDb-60" value="* gRPC interface" style="edgeLabel;html=1;align=center;verticalAlign=middle;resizable=0;points=[];fontFamily=Go;" parent="J3TVIsSFj8DeQbO7fkDb-59" vertex="1" connectable="0">
          <mxGeometry x="-0.0876" y="1" relative="1" as="geometry">
            <mxPoint as="offset" />
          </mxGeometry>
        </mxCell>
        <mxCell id="J3TVIsSFj8DeQbO7fkDb-61" value="&lt;font face=&quot;Go&quot;&gt;* only DAOs&lt;/font&gt;" style="text;html=1;align=left;verticalAlign=middle;whiteSpace=wrap;rounded=0;" parent="1" vertex="1">
          <mxGeometry x="130" y="470" width="100" height="20" as="geometry" />
        </mxCell>
      </root>
    </mxGraphModel>
  </diagram>
</mxfile>
